<?xml version="1.0" encoding="UTF-8"?><svg id="a" xmlns="http://www.w3.org/2000/svg" viewBox="0 0 782.09 338.25"><path d="M96.3,256.35c-41.4,0-76.2-33.9-76.2-82.5V36.75h13.8c15.6,0,26.4,9,26.4,27.9v47.1c8.1-11.7,21.9-24.6,43.8-24.6,41.1,0,72.6,33.6,72.6,81.3s-31.2,87.9-80.4,87.9Zm0-133.5c-20.4,0-35.7,20.1-35.7,45.3,0,37.2,15.9,52.5,39.9,52.5,20.1,0,34.5-19.2,34.5-45.3,0-39.3-14.1-52.5-38.7-52.5Z"/><path d="M226.5,305.25c-15,0-28.2-9.9-28.2-24.9v-7.8l22.8-1.5c14.7-.9,19.8-6.9,28.5-29.7-21.3-32.1-51.9-112.5-57.3-150.6h21.3c11.1,0,21.3,7.5,23.4,18.9,5.7,31.2,17.7,64.8,32.4,93.3,13.2-30.3,27.9-79.2,31.5-112.2h17.4c12.9,0,18.9,5.7,18.9,18.9,0,17.1-28.2,90.9-35.7,108.3-30,70.8-45.9,87.3-75,87.3Z"/><path d="M374.4,65.25c5.4-6.3,12.6-11.1,18.9-11.1h9.3v36.6h56.1v16.5c0,8.4-7.5,19.2-24,19.2h-32.1v63.3c0,21,9.3,29.1,25.5,29.1,12.9,0,22.8-1.8,29.1-5.7h1.5v14.4c0,16.5-12,27-35.4,27-40.8,0-60.6-22.2-60.6-60V97.35c0-15.9,3-21.9,11.7-32.1Z"/><path d="M543.3,189.15h-26.4c3,20.4,21.6,33.3,45.3,33.3,16.8,0,36.6-3.3,49.5-15.3h1.5v12.6c0,20.7-14.1,36.6-58.5,36.6-40.2,0-79.5-31.8-79.5-81.3,0-54,33-87.9,79.2-87.9,33.6,0,64.8,24,64.8,62.7,0,29.7-22.5,39.3-75.9,39.3Zm7.5-68.4c-19.5,0-33,15.9-33.9,34.5l-.3,5.4h18c38.1,0,46.8-4.2,46.8-15.6,0-16.2-12-24.3-30.6-24.3Z"/><path d="M749.4,252.75h-78.9c-18.6,0-27.6-8.7-27.6-21.3s9.3-27.9,24.6-44.4l40.8-44.4c4.8-5.4,11.1-12.9,13.8-18.3h-79.5v-12.3c0-12,8.7-21.3,26.7-21.3h73.5c18.9,0,25.2,11.4,25.2,20.7,0,12.6-6.6,27.6-20.7,42.9l-40.5,43.8c-5.7,6.3-11.7,13.5-15.3,20.1h78.6v15.6c0,9.9-10.5,18.9-20.7,18.9Z"/></svg>