<?xml version="1.0" encoding="UTF-8"?>
<svg version="1.1" xmlns="http://www.w3.org/2000/svg" width="5432" height="2350">
<path d="M0 0 C14.70998675 -0.07065831 29.41995051 -0.12326225 44.13007355 -0.15543652 C50.96307612 -0.1707849 57.79597216 -0.19163823 64.62890625 -0.22631836 C71.24254579 -0.25986894 77.8561051 -0.27693234 84.46983337 -0.28463173 C86.97315698 -0.29010745 89.47647567 -0.30079626 91.97975159 -0.31719017 C142.83631104 -0.63652078 191.6131605 10.89316642 229 47 C229.79019531 47.73863281 230.58039063 48.47726562 231.39453125 49.23828125 C255.86682831 72.68197038 269.05337445 105.86799016 275.75 138.5 C275.94875732 139.45922363 276.14751465 140.41844727 276.35229492 141.40673828 C280.22865947 161.39502181 280.30928238 181.3567667 280.31667423 201.62620723 C280.32041063 205.88292021 280.3355864 210.13959556 280.34928894 214.39628601 C280.3714341 221.74987062 280.3865235 229.10344162 280.39665604 236.45705223 C280.41131597 247.08879675 280.43687267 257.72049376 280.46498732 268.3522102 C280.51032332 285.60645757 280.54699229 302.86071182 280.578125 320.11499023 C280.60836483 336.86402596 280.64273983 353.61304488 280.68261719 370.36206055 C280.68630951 371.91378462 280.68630951 371.91378462 280.69007643 373.49685665 C280.70245208 378.68717156 280.71490841 383.87748626 280.72740483 389.06780088 C280.83077484 432.04517712 280.92004292 475.02257425 281 518 C281.33962265 517.51513123 281.6792453 517.03026245 282.02915955 516.53070068 C283.58923179 514.30564128 285.15201586 512.08249967 286.71484375 509.859375 C287.24895874 509.0967334 287.78307373 508.3340918 288.33337402 507.54833984 C292.62558893 501.44896295 297.1646316 495.68135052 302 490 C302.89527799 488.93161488 303.7897719 487.86257239 304.68359375 486.79296875 C310.31850698 480.06723694 316.08209107 473.47917484 322 467 C322.86753906 466.02804687 323.73507812 465.05609375 324.62890625 464.0546875 C383.97666518 398.01898764 468.59964959 356.43706834 557.11865234 350.1809082 C566.28125952 349.75384241 575.45402133 349.75503966 584.625 349.75 C585.73059265 349.74932526 586.8361853 349.74865051 587.97528076 349.74795532 C656.99461951 349.81452466 725.19472004 364.13788462 788 393 C788.94149902 393.42893555 789.88299805 393.85787109 790.85302734 394.29980469 C834.08158799 414.0911939 873.52051961 440.87564465 908.63671875 472.85546875 C910.1474549 474.22636816 911.66990601 475.58453746 913.20703125 476.92578125 C919.08854453 482.08588234 924.64674412 487.5402657 930.1875 493.0625 C930.94804688 493.81845459 931.70859375 494.57440918 932.4921875 495.35327148 C936.65184279 499.52426964 940.64410463 503.78274263 944.48754883 508.24682617 C946.36052189 510.41790277 948.30462707 512.51878915 950.25 514.625 C955.28449066 520.21133197 959.87965472 526.09167568 964.47265625 532.04003906 C966.04684179 534.06010964 967.64554157 536.05859708 969.25 538.0546875 C1019.54536429 600.99619788 1052.72075785 677.87788235 1071 756 C1071.15084045 756.64096619 1071.30168091 757.28193237 1071.45709229 757.94232178 C1081.84909496 802.2232706 1088.09239559 847.95920043 1088.203125 893.47265625 C1088.20595238 894.28087767 1088.20877975 895.08909908 1088.21169281 895.92181206 C1088.22656771 900.22025736 1088.23586424 904.51867026 1088.24023438 908.81713867 C1088.24456581 912.27297839 1088.25826448 915.72856091 1088.28125 919.18432617 C1088.40453834 938.13335974 1088.11824998 956.95341158 1086.62890625 975.8515625 C1086.56749199 976.63279543 1086.50607773 977.41402836 1086.44280243 978.21893501 C1084.99315691 996.22895017 1082.7045105 1014.13845506 1080 1032 C1079.89192017 1032.71484558 1079.78384033 1033.42969116 1079.67248535 1034.16619873 C1066.68845538 1119.2573548 1036.92588218 1202.33946731 964 1315 C963.37230713 1315.83821289 963.37230713 1315.83821289 962.73193359 1316.69335938 C957.27457187 1323.95848548 951.57184056 1330.96778107 945.66015625 1337.8671875 C943.17016182 1340.77980802 940.77035021 1343.75893661 938.375 1346.75 C934.85426651 1351.0817596 931.09327201 1355.01343739 927.09765625 1358.90625 C925.23068738 1360.7697422 923.51419398 1362.67446853 921.8125 1364.6875 C914.57747865 1373.10581923 906.50706006 1381.08116109 898.03125 1388.24609375 C895.93284835 1390.05798287 893.91067543 1391.94138352 891.88793945 1393.83691406 C886.04164994 1399.29735036 879.95186485 1404.31009497 873.6171875 1409.19140625 C871.1949086 1411.0587702 868.80826318 1412.96046803 866.4453125 1414.90234375 C856.70203942 1422.89486214 846.49859064 1430.03664907 836 1437 C834.91283691 1437.72533936 834.91283691 1437.72533936 833.80371094 1438.46533203 C815.5730481 1450.59815247 796.53353703 1461.12157374 777 1471 C775.63198242 1471.69609375 775.63198242 1471.69609375 774.23632812 1472.40625 C711.51811462 1504.10303557 640.80295552 1520.26825181 571 1525 C570.23333008 1525.05784668 569.46666016 1525.11569336 568.67675781 1525.17529297 C482.61424457 1531.6118369 394.52485927 1516.20958483 188.73999023 1397.17944336 C184.91701025 1393.86597251 181.2957568 1390.41112885 177.7734375 1386.77734375 C176.00132277 1385.00132569 174.16023853 1383.37565197 172.25 1381.75 C164.57437178 1375.13412321 157.39720071 1367.82855339 150.83203125 1360.11328125 C148.95109093 1357.94358251 147.01085261 1355.8353431 145.05712891 1353.73120117 C139.44589753 1347.68281795 134.15658321 1341.44359819 129 1335 C128.07759625 1333.86916043 127.15437804 1332.73898485 126.23046875 1331.609375 C102.38110288 1302.32241707 82.40044265 1270.18316363 65.29882812 1236.55078125 C64.16285823 1234.31983888 63.01415392 1232.09623822 61.859375 1229.875 C25.70966939 1159.79086588 5.80315591 1078.87686586 1.20032066 1000.3731854 C1.06261838 998.05442654 0.91191563 995.73641464 0.75038248 993.41919398 C-0.38202162 975.7768474 -0.13841506 958.08849422 -0.12226619 940.41907077 C-0.11880248 935.40025939 -0.12120836 930.38145007 -0.12284368 925.36263824 C-0.12490896 916.58179395 -0.12328817 907.80095648 -0.11920547 899.02011299 C-0.11315166 885.96347255 -0.11287141 872.90683637 -0.11374746 859.85019478 C-0.11505916 837.88312273 -0.11173563 815.91605336 -0.10573006 793.94898224 C-0.09980005 772.2061995 -0.09595346 750.463418 -0.09487724 728.72063446 C-0.09484283 728.04445037 -0.09480842 727.36826627 -0.09477296 726.67159175 C-0.09445975 720.49535126 -0.09417206 714.31911077 -0.09391499 708.14287028 C-0.09327574 692.79200256 -0.0923165 677.44113487 -0.09113979 662.09026718 C-0.09108648 661.3913571 -0.09103316 660.69244702 -0.09097823 659.97235784 C-0.08835908 626.00549721 -0.08205249 592.03863739 -0.07543945 558.07177734 C-0.07314771 546.29005941 -0.07087232 534.50834148 -0.06866455 522.72662354 C-0.0685276 521.99588282 -0.06839065 521.2651421 -0.06824955 520.51225772 C-0.06190104 486.51795237 -0.05817845 452.52364688 -0.05512976 418.52934109 C-0.05493169 416.32138109 -0.0547325 414.11342108 -0.05453308 411.90546108 C-0.05321325 397.27273175 -0.05193861 382.64000242 -0.05069422 368.00727309 C-0.04821796 338.89379509 -0.04547629 309.78031713 -0.04255217 280.66683918 C-0.04241293 279.28049752 -0.04227388 277.89415585 -0.04213501 276.50781419 C-0.03332737 188.60155452 -0.0184275 100.69529576 0 0 Z M490 602 C489.07606445 602.20399414 488.15212891 602.40798828 487.20019531 602.61816406 C448.09762707 611.53401683 413.38938639 629.65978183 384 657 C382.6290837 658.19221213 381.25423376 659.37991999 379.875 660.5625 C373.03649064 666.53415606 366.8251237 673.04378432 361 680 C360.16082031 680.98871094 359.32164062 681.97742188 358.45703125 682.99609375 C344.68504539 699.52628778 332.76958328 717.83689114 323 737 C322.55849609 737.86383301 322.11699219 738.72766602 321.66210938 739.61767578 C292.83808766 796.6106278 280.86274193 860.42396148 282 924 C282.01788574 925.06702148 282.03577148 926.13404297 282.05419922 927.23339844 C283.7022331 1013.67698567 296.51915876 1107.86235266 356 1189 C356.45310547 1189.55461914 356.90621094 1190.10923828 357.37304688 1190.68066406 C376.84218016 1214.38279821 400.0120505 1233.39396818 427 1248 C428.04534912 1248.56581787 428.04534912 1248.56581787 429.11181641 1249.14306641 C459.39623138 1265.18580931 493.27478398 1272.05251924 527 1276 C528.12148438 1276.13148438 528.12148438 1276.13148438 529.265625 1276.265625 C533.50774596 1276.72904998 537.7368191 1276.91387513 542 1277 C543.55460938 1277.03867188 543.55460938 1277.03867188 545.140625 1277.078125 C569.83573657 1277.61731958 593.17488611 1275.64215296 617 1269 C618.1152002 1268.69352539 618.1152002 1268.69352539 619.25292969 1268.38085938 C644.81113195 1261.15714137 668.47784309 1247.68306509 689 1231 C689.7739209 1230.3805249 689.7739209 1230.3805249 690.56347656 1229.74853516 C704.02184498 1218.94080371 716.52622697 1206.73517922 727 1193 C727.93988755 1191.80061147 728.88000755 1190.60140507 729.8203125 1189.40234375 C737.33596125 1179.71178356 743.84657151 1169.59880364 750 1159 C750.44698242 1158.24299805 750.89396484 1157.48599609 751.35449219 1156.70605469 C778.74904042 1110.10179445 793.16029739 1054.77756041 797 1001 C797.08467529 999.96633301 797.16935059 998.93266602 797.2565918 997.86767578 C798.22794241 984.71429337 798.1993771 971.55847289 798.1875 958.375 C798.18689575 957.13734894 798.1862915 955.89969788 798.18566895 954.62454224 C798.08474958 878.19596605 792.03954289 794.40468453 757 725 C756.57364258 724.13922852 756.14728516 723.27845703 755.70800781 722.39160156 C749.90242686 710.7177444 743.65433324 699.56346624 736 689 C735.59426758 688.43877441 735.18853516 687.87754883 734.77050781 687.29931641 C729.1329424 679.58063544 723.01476774 672.3872389 716.41210938 665.47949219 C715.4756544 664.4983516 714.54457769 663.51204753 713.61914062 662.52050781 C680.20609027 626.77467044 632.47003577 609.00339179 585 602 C583.98421875 601.84901855 582.9684375 601.69803711 581.921875 601.54248047 C552.50374747 597.38537617 519.1554131 595.49654602 490 602 Z " fill="#FFFFFF" transform="translate(139,255)"/>
<path d="M0 0 C1.89122086 0.00323273 1.89122086 0.00323273 3.82064819 0.00653076 C23.83290176 0.0611672 43.53029892 0.60570364 63.375 3.3125 C64.09679443 3.40960266 64.81858887 3.50670532 65.56225586 3.60675049 C115.91292398 10.44059749 164.42204717 24.43188097 210.375 46.3125 C211.67630859 46.9302832 211.67630859 46.9302832 213.00390625 47.56054688 C245.03278296 62.88371451 275.29568303 82.31308012 302.375 105.3125 C303.4334245 106.1968172 304.49202863 107.08091943 305.55078125 107.96484375 C320.79336027 120.77281377 335.04971814 134.52193449 348.375 149.3125 C349.15302979 150.17343262 349.15302979 150.17343262 349.94677734 151.05175781 C411.40048096 219.55556132 446.6082418 310.92492172 452.375 402.3125 C452.43139648 403.20018066 452.48779297 404.08786133 452.54589844 405.00244141 C455.80157822 458.97159467 451.34631425 513.97447727 425.375 562.3125 C424.77300781 563.4675 424.17101563 564.6225 423.55078125 565.8125 C415.35043009 580.94103043 404.29105551 593.99041593 392.375 606.3125 C391.74207031 606.98539063 391.10914062 607.65828125 390.45703125 608.3515625 C329.3523537 671.92364983 226.42085306 689.08619565 -8.625 709.3125 C-27.20780539 709.63011446 -45.79589988 709.55627321 -64.38061666 709.51528788 C-70.51553132 709.50378406 -76.65044262 709.50201756 -82.78536643 709.49998413 C-94.88459457 709.49567619 -106.98379474 709.48256187 -119.08300781 709.46337891 C-130.79101427 709.44483625 -142.49901295 709.43077161 -154.20703125 709.42236328 C-154.93660608 709.42183783 -155.66618091 709.42131239 -156.41786407 709.42077102 C-160.08028351 709.41815972 -163.74270299 709.4156326 -167.40512252 709.41314721 C-197.47843455 709.39263127 -227.5517139 709.35744737 -257.625 709.3125 C-257.15342462 711.35801559 -256.68171934 713.40350123 -256.20996094 715.44897461 C-255.94729431 716.58805771 -255.68462769 717.72714081 -255.41400146 718.90074158 C-244.90028191 764.36361184 -227.18411728 806.05209551 -194.625 840.3125 C-193.40927491 841.7019001 -192.20037389 843.09731591 -191 844.5 C-184.70394646 851.70385661 -177.87826042 857.9335895 -170.39086914 863.88549805 C-168.98817985 865.01901373 -167.59977284 866.17019891 -166.21655273 867.32739258 C-142.39373011 887.16807003 -115.17107984 901.55623315 -86.625 913.3125 C-85.80499512 913.65120117 -84.98499023 913.98990234 -84.14013672 914.33886719 C-52.38115556 927.24200664 -17.61764035 933.8984471 16.375 937.3125 C17.24363678 937.39982895 18.11227356 937.4871579 19.00723267 937.57713318 C27.00607077 938.31329804 34.95079968 938.48840748 42.98046875 938.515625 C44.3762617 938.52260237 45.77205434 938.52964334 47.16784668 938.53674316 C51.63273482 938.55612022 56.09757443 938.56092347 60.5625 938.5625 C61.32323948 938.56308914 62.08397896 938.56367828 62.86777115 938.56428528 C87.08317547 938.57752875 111.12524068 938.07215861 135.22784424 935.53710938 C137.36067274 935.31399874 139.49431876 935.10119979 141.62841797 934.890625 C226.69196225 926.3879819 315.46270715 902.15317711 382.875 847.5625 C383.54660156 847.01899902 384.21820312 846.47549805 384.91015625 845.91552734 C388.52963307 842.94614193 391.84422472 839.8456827 395.125 836.5 C398.63083307 833.27441378 400.92603717 832.94949107 405.640625 833.11328125 C407.25372559 833.15642456 407.25372559 833.15642456 408.89941406 833.20043945 C409.71635742 833.23741943 410.53330078 833.27439941 411.375 833.3125 C411.44516012 846.66683996 411.49814103 860.02113457 411.53043652 873.37562275 C411.54595306 879.57966532 411.56692817 885.78357989 411.60131836 891.98754883 C411.63442051 897.99821885 411.65195764 904.00876742 411.65963173 910.01952171 C411.66508562 912.28870742 411.67572838 914.55788809 411.69219017 916.82702065 C412.12835667 979.56561886 394.06060247 1036.68956026 349.8125 1082.125 C344.94191044 1086.86442467 339.70913084 1091.10920489 334.375 1095.3125 C333.38757812 1096.10527344 332.40015625 1096.89804688 331.3828125 1097.71484375 C262.7097447 1151.9169035 170.09810399 1167.46839958 -57.46875 1173.046875 C-119.11786769 1165.75889791 -178.71018972 1148.26578151 -234.625 1121.3125 C-235.65077148 1120.82346191 -236.67654297 1120.33442383 -237.73339844 1119.83056641 C-278.35141355 1100.39026067 -316.24412202 1075.35590303 -350.625 1046.3125 C-351.54273193 1045.54341309 -351.54273193 1045.54341309 -352.47900391 1044.75878906 C-366.154672 1033.29464843 -378.99168283 1021.0322146 -391.625 1008.4375 C-392.11990936 1007.94526947 -392.61481873 1007.45303894 -393.12472534 1006.94589233 C-398.84633978 1001.2478163 -404.38362554 995.45767345 -409.625 989.3125 C-410.64624143 988.1556098 -411.66964781 987.00062674 -412.6953125 985.84765625 C-420.18252991 977.36368102 -427.19426416 968.60515853 -433.96142578 959.53808594 C-435.64064208 957.29157349 -437.33354204 955.05584081 -439.02734375 952.8203125 C-480.00320179 898.38451295 -509.56677746 835.89569397 -527.625 770.3125 C-527.93630859 769.18956543 -528.24761719 768.06663086 -528.56835938 766.90966797 C-535.71052041 740.78138908 -540.65814856 714.00553994 -543.9375 687.125 C-544.08469482 685.92464111 -544.23188965 684.72428223 -544.38354492 683.48754883 C-544.84630298 679.43320337 -545.24968632 675.37565156 -545.625 671.3125 C-545.71113556 670.401586 -545.79727112 669.490672 -545.88601685 668.55215454 C-547.62893586 649.5925448 -547.988276 630.73182228 -547.94285583 611.71027374 C-547.93741569 609.33823996 -547.9350477 606.96621616 -547.9329834 604.59417725 C-547.89841909 579.07038098 -547.15742721 553.72564114 -544.625 528.3125 C-544.55238953 527.56442078 -544.47977905 526.81634155 -544.40496826 526.04559326 C-543.37324111 515.43564751 -542.11207787 504.8681354 -540.625 494.3125 C-540.52401001 493.59461304 -540.42302002 492.87672607 -540.31896973 492.13708496 C-534.98354467 454.55686406 -526.8801189 417.56586367 -515.625 381.3125 C-515.3027243 380.27249847 -515.3027243 380.27249847 -514.97393799 379.21148682 C-494.90328314 314.6894237 -464.52861512 254.1858562 -423.625 200.3125 C-423.1393457 199.67231934 -422.65369141 199.03213867 -422.15332031 198.37255859 C-408.34429403 180.2681424 -392.95482608 163.45475764 -376.86376953 147.3659668 C-375.12111683 145.62111192 -373.38666837 143.86836257 -371.65234375 142.11523438 C-365.68879287 136.12255516 -359.66347823 130.46992621 -353.0144043 125.234375 C-350.55156726 123.25343568 -348.24360217 121.16029932 -345.9375 119 C-339.89547368 113.5098438 -333.3713898 108.71540022 -326.79003906 103.89941406 C-324.64207769 102.32501748 -322.50439374 100.73739111 -320.3671875 99.1484375 C-279.07745029 68.65726808 -233.07849106 45.91751899 -184.625 29.3125 C-183.62952148 28.96977051 -182.63404297 28.62704102 -181.60839844 28.27392578 C-146.27239563 16.2241527 -109.52951022 8.54410754 -72.5 4 C-71.30769775 3.85272461 -70.11539551 3.70544922 -68.88696289 3.55371094 C-45.97126659 0.9319674 -23.05468531 -0.0717181 0 0 Z M-87.625 243.3125 C-88.97319824 243.69100098 -88.97319824 243.69100098 -90.34863281 244.07714844 C-121.53693603 253.08246676 -150.60710039 269.88753707 -174.25390625 292.09375 C-176.30652646 294.01448852 -178.4050953 295.82495681 -180.5625 297.625 C-229.29467588 340.31517847 -253.64073497 408.79806132 -257.94140625 471.81152344 C-259.21725927 491.04736313 -259.21725927 491.04736313 -259.625 510.3125 C-234.93331937 510.35971915 -210.24164573 510.39472854 -185.54992867 510.41612434 C-174.07900588 510.42633332 -162.60811153 510.44018841 -151.13720703 510.46337891 C-141.11143243 510.48363773 -131.08567846 510.49629121 -121.05988395 510.50067699 C-115.77653114 510.50323095 -110.49323718 510.50900096 -105.20990372 510.52396011 C-82.44396247 510.58577576 -59.72922777 510.31187834 -36.97998047 509.38623047 C-35.95542322 509.344618 -34.93086598 509.30300553 -33.87526155 509.26013207 C77.09274945 507.68613106 77.09274945 507.68613106 171.6875 459.0625 C185.5136952 442.48860427 189.78200283 423.09106844 189.6875 401.9375 C189.68258545 400.62547607 189.6776709 399.31345215 189.67260742 397.96166992 C189.27718055 355.41004632 174.36219724 316.46261466 144.00805664 286.40429688 C136.73794531 279.45076768 128.88937216 273.64634347 120.375 268.3125 C119.72740723 267.90596191 119.07981445 267.49942383 118.41259766 267.08056641 C85.76951549 246.96129551 48.08669014 238.99286378 10.375 235.3125 C9.66182617 235.24047363 8.94865234 235.16844727 8.21386719 235.09423828 C3.60502314 234.64985613 -0.9982348 234.43050172 -5.625 234.3125 C-6.66688477 234.28526855 -7.70876953 234.25803711 -8.78222656 234.22998047 C-35.8532936 233.63595623 -61.52341928 235.9464636 -87.625 243.3125 Z " fill="#FFFFFF" transform="translate(3847.625,604.6875)"/>
<path d="M0 0 C21.03750542 -0.07036568 42.07499118 -0.12312228 63.11259079 -0.15543652 C72.88271795 -0.17084546 82.65277161 -0.19181944 92.42285156 -0.22631836 C100.94751008 -0.25640502 109.47211531 -0.27561828 117.99682546 -0.28226548 C122.50237334 -0.28614543 127.0077689 -0.29513608 131.51326752 -0.31719017 C167.62492443 -0.48710477 167.62492443 -0.48710477 184 3 C185.11953568 3.23703644 186.23907135 3.47407288 187.39253235 3.71829224 C189.97817281 4.2974554 192.51467112 4.96107393 195.0625 5.6875 C195.96677734 5.94096191 196.87105469 6.19442383 197.80273438 6.45556641 C237.74132126 18.08687744 273.60391172 45.57718021 294 82 C295.8015194 85.36200025 297.51303186 88.76060074 299.1875 92.1875 C299.77543335 93.36904663 299.77543335 93.36904663 300.37524414 94.57446289 C309.02193202 112.85308744 312.34826042 132.65002235 316.11975098 152.34350586 C317.72748744 160.73084316 319.38543675 169.10831203 321.05078125 177.484375 C321.21722012 178.32209442 321.38365898 179.15981384 321.55514145 180.0229187 C326.16648532 203.17818911 331.56872438 226.13086038 337.26550293 249.0423584 C337.97709257 251.90775733 338.68319034 254.77445354 339.38769531 257.64160156 C365.2477361 362.67051015 399.60600284 465.82075597 450 591 C450.31841858 591.76940918 450.63683716 592.53881836 450.96490479 593.33154297 C460.61891904 616.64226459 470.62519128 639.78435957 481 662.78320312 C482.00097676 665.00216528 483.00048694 667.22178448 484 669.44140625 C492.77832651 688.9153837 501.88317659 708.20915561 511.27081299 727.39634705 C513.72400757 732.41687071 516.1281843 737.45961357 518.51879883 742.51025391 C525.67241661 760.34043278 525.67241661 760.34043278 536 776 C546.24382356 752.89283043 555.76794198 729.52803696 565 706 C565.31388672 705.20013672 565.62777344 704.40027344 565.95117188 703.57617188 C582.27854628 661.91911809 597.55642952 619.86999335 612.11578369 577.5647583 C612.99002527 575.0289327 613.86805443 572.49445397 614.74755859 569.96044922 C644.9249056 483.00156657 671.0695025 394.48790607 721 192 C721.23334045 190.92568726 721.46668091 189.85137451 721.70709229 188.74450684 C731.04271058 145.6752025 739.17445293 102.38192497 745.8125 58.8125 C746.00652405 57.54081467 746.00652405 57.54081467 746.20446777 56.24343872 C749.03996625 37.52983813 751.48838523 18.75917705 754 0 C772.07323345 -0.04692341 790.14645088 -0.08208778 808.21973228 -0.10362434 C816.6133059 -0.11389426 825.00684146 -0.12787162 833.40039062 -0.15087891 C840.72451418 -0.17094508 848.04861013 -0.18374748 855.37276042 -0.18817699 C859.24328636 -0.19076221 863.11373344 -0.19674679 866.98423386 -0.21146011 C905.37310843 -0.35167772 905.37310843 -0.35167772 923.625 4.25 C924.93609741 4.5742395 924.93609741 4.5742395 926.27368164 4.9050293 C952.22790707 11.54811738 974.93158307 24.50909911 989.15234375 47.89501953 C997.22703588 62.02932271 1002.33994594 77.98682689 1005 94 C1005.20496094 95.22332031 1005.40992187 96.44664062 1005.62109375 97.70703125 C1008.98863086 120.6629233 1008.12857847 145.247018 1004 168 C1003.88547485 168.6459613 1003.77094971 169.29192261 1003.6529541 169.9574585 C989.29794814 250.91884132 962.85030053 329.69276655 937.1184082 407.61224365 C935.95066878 411.1494286 934.78485582 414.68724513 933.61914062 418.22509766 C923.49664028 448.92527011 913.12319896 479.51969842 902.22515869 509.95489502 C899.57049726 517.37744291 896.95394842 524.812883 894.3515625 532.25390625 C884.27686328 561.05339828 873.95837763 589.7487988 863.35009766 618.355896 C861.88219256 622.31797889 860.41728892 626.28116239 858.953125 630.24462891 C846.81795794 663.0912751 834.64564347 695.91658703 821.90667725 728.53504944 C819.63975002 734.34317241 817.39931356 740.16100461 815.171875 745.984375 C790.87934588 809.4291 765.15125787 872.26858509 738.0579834 934.56695557 C737.06430932 936.85210786 736.07156036 939.13765953 735.07910156 941.42333984 C712.55963791 993.2664859 689.31008552 1044.80762825 664.5952301 1095.6431427 C662.32286993 1100.32227631 660.08313381 1105.01622609 657.85400391 1109.71606445 C647.82959595 1130.83933013 637.4175882 1151.81426284 626.37695312 1172.42578125 C624.74977556 1175.46779548 623.13304533 1178.51528705 621.515625 1181.5625 C614.10078137 1195.51085693 606.53343269 1209.36102782 598.67871094 1223.06787109 C596.90687698 1226.16265379 595.14492577 1229.2629549 593.3828125 1232.36328125 C584.95110774 1247.14521008 576.14503591 1261.64928752 567 1276 C566.51080078 1276.77102051 566.02160156 1277.54204102 565.51757812 1278.33642578 C534.62429965 1326.96595173 498.5118019 1380.14585936 452.61328125 1415.9453125 C450.16935009 1417.86684881 447.82258929 1419.87413409 445.48095703 1421.91821289 C399.34234386 1461.97561937 340.24586074 1483.19586457 280 1489 C279.09749512 1489.0942627 278.19499023 1489.18852539 277.26513672 1489.28564453 C266.97808899 1490.23409574 256.67086325 1490.2214193 246.34765625 1490.24023438 C243.16639386 1490.24987456 239.98579738 1490.28095506 236.8046875 1490.3125 C180.33116811 1490.60477741 127.51978512 1470.35318945 86.8125 1431.125 C60.5506741 1404.132485 41.82033005 1365.48989256 41.88647461 1327.390625 C41.88632858 1326.67744614 41.88618256 1325.96426727 41.8860321 1325.22947693 C41.88672147 1322.90295224 41.89446747 1320.57651047 41.90234375 1318.25 C41.90421141 1316.6247563 41.90563367 1314.99951204 41.90663147 1313.37426758 C41.91042927 1309.11971451 41.92023587 1304.86519618 41.93133545 1300.61065674 C41.94160873 1296.25997385 41.94614171 1291.9092853 41.95117188 1287.55859375 C41.96186087 1279.03904665 41.97890401 1270.51952766 42 1262 C49.10361701 1261.47154853 56.20790542 1260.9526362 63.3125 1260.4375 C64.47460999 1260.35307648 65.63671997 1260.26865295 66.83404541 1260.18167114 C84.91387898 1258.87427684 102.99917311 1257.66575216 121.08918571 1256.50790215 C124.64271211 1256.280366 128.19618678 1256.05203693 131.74964905 1255.82350159 C151.52384299 1254.55259804 151.52384299 1254.55259804 160.49307251 1253.990448 C202.65674262 1252.24176062 202.65674262 1252.24176062 244.125 1245.1875 C245.15302734 1244.92815674 246.18105469 1244.66881348 247.24023438 1244.40161133 C267.55274112 1239.12743644 285.9356049 1230.63414046 302 1217 C303.00546875 1216.14664062 304.0109375 1215.29328125 305.046875 1214.4140625 C347.73259463 1177.19415519 368.98990702 1117.38489937 389.35449219 1066.11523438 C390.40588165 1063.46878758 391.48407405 1060.8366351 392.59082031 1058.21289062 C393.05842773 1057.07529297 393.52603516 1055.93769531 394.0078125 1054.765625 C394.62487061 1053.30044434 394.62487061 1053.30044434 395.25439453 1051.80566406 C396.36727385 1047.6179728 395.77551532 1044.53944849 393.83935547 1040.69604492 C393.35354004 1039.96490479 392.86772461 1039.23376465 392.3671875 1038.48046875 C391.81627441 1037.63661621 391.26536133 1036.79276367 390.69775391 1035.92333984 C390.09624512 1035.0205127 389.49473633 1034.11768555 388.875 1033.1875 C387.58585826 1031.20617044 386.29949777 1029.22302908 385.015625 1027.23828125 C384.34982422 1026.21041504 383.68402344 1025.18254883 382.99804688 1024.12353516 C367.73625598 1000.26486546 353.81654531 975.3918598 340.45019531 950.42944336 C338.19589475 946.22345853 335.93113254 942.02340759 333.65698242 937.828125 C324.77062353 921.3943684 316.24282562 904.80292056 307.91064453 888.08203125 C306.2145366 884.67841298 304.51117149 881.27848593 302.80590725 877.87944794 C294.3566466 861.02896972 286.21978893 844.06827532 278.35412598 826.93701172 C276.52790648 822.97605966 274.66697448 819.03227041 272.79296875 815.09375 C272.18955555 813.82351499 271.58620136 812.55325194 270.98291016 811.28295898 C270.69087708 810.66814667 270.39884399 810.05333435 270.09796143 809.41989136 C262.14497495 792.649417 254.55644535 775.72826339 247.0859375 758.73828125 C245.30935594 754.69907223 243.52340039 750.6640774 241.73512268 746.6300354 C230.88819511 722.15351759 220.41533857 697.53497628 210.16333008 672.80383301 C208.97874849 669.94878006 207.79153365 667.09483553 206.60351562 664.24121094 C195.79129703 638.26717126 185.20202972 612.2197964 175 586 C174.31543107 584.242838 173.63086072 582.48567656 172.94628906 580.72851562 C150.55703301 523.22111427 129.09714766 465.35030483 109 407 C108.69787598 406.12414246 108.39575195 405.24828491 108.08447266 404.34588623 C78.50084508 318.57065538 51.21736668 231.99877201 29 144 C28.77717346 143.12093994 28.55434692 142.24187988 28.32476807 141.33618164 C18.64122148 103.12315987 9.99170606 64.74527674 3.375 25.875 C3.20038239 24.85142395 3.02576477 23.8278479 2.84585571 22.77325439 C2.35701119 19.88891685 1.87567855 17.00346555 1.3984375 14.1171875 C1.25523575 13.2642511 1.112034 12.4113147 0.9644928 11.53253174 C0.83618576 10.74175232 0.70787872 9.9509729 0.57568359 9.13623047 C0.4637265 8.4541452 0.35176941 7.77205994 0.23641968 7.06930542 C-0.0342833 4.69992926 -0.01485366 2.38309132 0 0 Z " fill="#FFFFFF" transform="translate(1335,630)"/>
<path d="M0 0 C2.28870925 -0.00302746 4.57741749 -0.0069199 6.86612397 -0.01159257 C13.10056279 -0.02180469 19.33494366 -0.01970819 25.56938708 -0.01541197 C31.62008809 -0.01318765 37.67077395 -0.02037341 43.72146979 -0.02717223 C57.60979229 -0.0423508 71.49809645 -0.04412364 85.38642552 -0.0416492 C96.11704829 -0.03981107 106.8476651 -0.04158702 117.57828712 -0.04587364 C119.1241433 -0.04647606 120.66999948 -0.04707726 122.21585566 -0.04767724 C124.5457889 -0.04858457 126.87572215 -0.04949325 129.20565539 -0.0504096 C150.8469564 -0.05882991 172.48825519 -0.06318121 194.12955761 -0.05900288 C195.35136261 -0.05876831 195.35136261 -0.05876831 196.59785053 -0.05852901 C200.72551979 -0.05772332 204.85318904 -0.05687755 208.98085829 -0.05601571 C209.80051307 -0.05584462 210.62016786 -0.05567353 211.46466067 -0.05549726 C213.12219865 -0.0551506 214.77973663 -0.05480207 216.43727461 -0.05445167 C242.21961527 -0.04909635 268.00192171 -0.05702331 293.78425598 -0.07548523 C322.80320702 -0.09624084 351.82213687 -0.10692117 380.84109575 -0.10290974 C383.94040286 -0.10251445 387.03970998 -0.10215289 390.13901711 -0.10181236 C390.90205004 -0.10172163 391.66508297 -0.1016309 392.45123812 -0.10153742 C403.92667044 -0.10037565 415.40208122 -0.10698756 426.87750816 -0.11762428 C439.9417393 -0.12972192 453.00592327 -0.131183 466.07015517 -0.11883412 C472.72641637 -0.11282244 479.38260555 -0.11178297 486.03886604 -0.12383652 C492.14891443 -0.13477172 498.25879494 -0.13150216 504.36883572 -0.11757483 C506.56247701 -0.11494876 508.75613178 -0.11722746 510.94975974 -0.1253107 C557.38223759 -0.28433909 603.48140953 9.84518975 639.69319153 40.26069641 C640.4537384 40.88589172 641.21428528 41.51108704 641.99787903 42.15522766 C656.57875673 54.54140578 666.83154324 71.01535599 674.69319153 88.26069641 C675.16627747 89.28292297 675.6393634 90.30514954 676.12678528 91.35835266 C698.63941075 144.58913998 681.74078118 212.19778371 661.17927551 263.20381165 C645.35311808 301.54231074 625.04504516 337.69836 600.69319153 371.26069641 C600.11327454 372.06587708 599.53335754 372.87105774 598.93586731 373.70063782 C591.32182248 384.25948012 583.41551127 394.5159815 575.11262512 404.54145813 C573.12099124 406.95375359 571.16000734 409.39065008 569.19319153 411.82319641 C560.20512314 422.78305312 550.79392633 433.35062938 541.12971497 443.71528625 C538.80362698 446.21768886 536.49885291 448.73948693 534.19319153 451.26069641 C526.04808514 460.15449293 517.86657811 469.01336483 509.63069153 477.82319641 C504.52210686 483.28817777 499.44818456 488.78268793 494.40022278 494.30366516 C490.01831274 499.09512941 485.60699698 503.85952052 481.20051575 508.62837219 C479.71909019 510.23265002 478.2391016 511.83824007 476.75959778 513.44429016 C471.40367152 519.25649499 466.02841689 525.04977293 460.63069153 530.82319641 C455.52208279 536.28815497 450.44818428 541.78268824 445.40022278 547.30366516 C441.01831274 552.09512941 436.60699698 556.85952052 432.20051575 561.62837219 C430.71909019 563.23265002 429.2391016 564.83824007 427.75959778 566.44429016 C422.40367152 572.25649499 417.02841689 578.04977293 411.63069153 583.82319641 C406.52208279 589.28815497 401.44818428 594.78268824 396.40022278 600.30366516 C392.01831274 605.09512941 387.60699698 609.85952052 383.20051575 614.62837219 C381.71909019 616.23265002 380.2391016 617.83824007 378.75959778 619.44429016 C373.40367152 625.25649499 368.02841689 631.04977293 362.63069153 636.82319641 C357.52208279 642.28815497 352.44818428 647.78268824 347.40022278 653.30366516 C343.01831274 658.09512941 338.60699698 662.85952052 334.20051575 667.62837219 C332.71909019 669.23265002 331.2391016 670.83824007 329.75959778 672.44429016 C324.40367152 678.25649499 319.02841689 684.04977293 313.63069153 689.82319641 C308.52208279 695.28815497 303.44818428 700.78268824 298.40022278 706.30366516 C294.01831274 711.09512941 289.60699698 715.85952052 285.20051575 720.62837219 C283.71909019 722.23265002 282.2391016 723.83824007 280.75959778 725.44429016 C275.96499252 730.64721842 271.15863591 735.83828395 266.32429504 741.00434875 C255.02084765 753.05478478 255.02084765 753.05478478 244.31819153 765.63569641 C241.07364027 769.64899152 237.70542914 773.48455452 234.19319153 777.26069641 C229.10950784 782.73826055 224.3723665 788.4360594 219.69319153 794.26069641 C218.66174236 795.5246181 217.62911451 796.78757849 216.59553528 798.04975891 C209.8108141 806.34197317 203.13824933 814.70110622 196.69319153 823.26069641 C196.18739563 823.92843079 195.68159973 824.59616516 195.16047668 825.28413391 C188.00132614 834.75841137 181.12734046 844.40273044 174.50569153 854.26069641 C173.88935852 855.1718219 173.27302551 856.08294739 172.63801575 857.02168274 C166.52180466 866.22004739 161.26420777 875.63803199 155.69319153 885.26069641 C335.21319153 885.26069641 514.73319153 885.26069641 699.69319153 885.26069641 C699.69319153 1036.20255688 699.69319153 1036.20255688 669.69319153 1071.26069641 C669.00741028 1072.0689386 668.32162903 1072.87718079 667.61506653 1073.70991516 C649.97208842 1093.92318325 627.08364782 1109.48699728 601.69319153 1118.26069641 C601.03770325 1118.48741028 600.38221497 1118.71412415 599.7068634 1118.94770813 C580.36479786 1125.46797614 561.073957 1126.70712591 540.79241943 1126.63491821 C538.4391382 1126.63766473 536.0858582 1126.64172185 533.7325812 1126.64696187 C527.31954713 1126.65747142 520.90665402 1126.6494701 514.49362624 1126.63821137 C508.27038038 1126.62875155 502.04714216 1126.63645596 495.82389558 1126.64218794 C482.32103939 1126.65406959 468.81823014 1126.6490622 455.31537657 1126.63690967 C443.49393425 1126.62634391 431.67250787 1126.62183793 419.85106087 1126.62320518 C418.67159459 1126.62333123 418.67159459 1126.62333123 417.46830071 1126.62345982 C414.27576357 1126.62381212 411.08322643 1126.62419614 407.89068929 1126.6246254 C377.97756397 1126.62858512 348.06446676 1126.61589929 318.15134948 1126.59509884 C291.63054038 1126.57674377 265.10975825 1126.57091402 238.58894348 1126.57637024 C236.88686861 1126.57671668 235.18479375 1126.57706277 233.48271888 1126.57740853 C232.64120913 1126.57757952 231.79969938 1126.57775052 230.93268934 1126.5779267 C226.6957799 1126.57878037 222.45887047 1126.57960415 218.22196102 1126.5803957 C217.3859108 1126.58055278 216.54986058 1126.58070986 215.6884755 1126.5808717 C193.47164615 1126.58487154 171.25481937 1126.57937272 149.03799158 1126.57088441 C146.64413205 1126.56997745 144.25027252 1126.5690718 141.85641299 1126.56816918 C140.26866143 1126.56756806 138.68090987 1126.56695944 137.09315832 1126.56634327 C126.06929014 1126.56213839 115.04542706 1126.56153674 104.02155834 1126.56344876 C89.802532 1126.56590293 75.58353293 1126.56173121 61.36451399 1126.54623876 C54.51764217 1126.53894857 47.67081 1126.53488077 40.82393456 1126.53948212 C34.53740359 1126.54360381 28.25094934 1126.53826658 21.96442992 1126.52585604 C19.70884403 1126.52296449 17.45325073 1126.52330658 15.19766688 1126.52749912 C-29.22497399 1126.60247288 -74.72689081 1121.8577317 -114.30680847 1100.26069641 C-115.36255066 1099.69608704 -116.41829285 1099.13147766 -117.50602722 1098.54975891 C-146.80997057 1082.23148458 -169.51022665 1054.82776192 -178.74382019 1022.41059875 C-196.19813839 955.75720496 -170.60933418 887.86034118 -137.29696655 830.43502808 C-129.70142211 817.45601336 -121.68474468 804.74730987 -113.30680847 792.26069641 C-112.84500183 791.57008118 -112.38319519 790.87946594 -111.90739441 790.16792297 C-98.39636476 770.03250639 -83.67402208 750.74418862 -68.33415222 731.97554016 C-65.94390965 729.04971846 -63.58602875 726.10057717 -61.24430847 723.13569641 C-56.60565793 717.32036512 -51.7316147 711.70930251 -46.8712616 706.07954407 C-45.33708383 704.29589482 -43.81254263 702.50450408 -42.29118347 700.70991516 C-36.37985429 693.74654521 -30.32669764 686.95098308 -24.09977722 680.26850891 C-21.67813618 677.66915528 -19.29779067 675.03594634 -16.93180847 672.38569641 C-12.51403733 667.45385736 -7.98961062 662.62547984 -3.46403503 657.79292297 C0.5529866 653.49781656 4.51133804 649.15629967 8.43147278 644.77241516 C12.62178425 640.11892592 16.88665321 635.53381999 21.14045715 630.93843079 C23.6808563 628.19352152 26.21853195 625.44609994 28.75569153 622.69819641 C29.25230286 622.16033508 29.74891418 621.62247375 30.26057434 621.0683136 C35.41890951 615.47871331 40.55712268 609.87074998 45.69319153 604.26069641 C51.85173342 597.53381035 58.02131007 590.81751564 64.21028137 584.11860657 C69.38685477 578.51358093 74.54111651 572.88823329 79.69319153 567.26069641 C85.85173342 560.53381035 92.02131007 553.81751564 98.21028137 547.11860657 C103.38685477 541.51358093 108.54111651 535.88823329 113.69319153 530.26069641 C119.85173342 523.53381035 126.02131007 516.81751564 132.21028137 510.11860657 C136.93180849 505.00629026 141.63488823 499.87721925 146.33430481 494.74458313 C149.0784802 491.7479791 151.82476342 488.75330658 154.57063293 485.758255 C156.85044519 483.27140766 159.1297821 480.78412845 161.40803528 478.29585266 C166.66257502 472.55813686 171.93065441 466.83324624 177.21028137 461.11860657 C182.38685477 455.51358093 187.54111651 449.88823329 192.69319153 444.26069641 C198.85173342 437.53381035 205.02131007 430.81751564 211.21028137 424.11860657 C216.38685477 418.51358093 221.54111651 412.88823329 226.69319153 407.26069641 C232.85173342 400.53381035 239.02131007 393.81751564 245.21028137 387.11860657 C249.02355172 382.98972121 252.82757694 378.85249511 256.62117004 374.70552063 C258.87502646 372.24184332 261.13464241 369.78426022 263.40412903 367.33491516 C268.85441643 361.44680658 274.14934043 355.45099204 279.34651184 349.33808899 C282.30365909 345.8641634 285.30743368 342.44576285 288.38069153 339.07319641 C292.10473176 334.96345202 295.6396771 330.73273773 299.12678528 326.42085266 C301.03742191 324.05831955 302.97163918 321.71677163 304.91584778 319.38179016 C312.55150762 310.20055006 319.94338727 300.87265372 327.12727356 291.3339386 C328.659707 289.30502922 330.20420621 287.28587989 331.75178528 285.26850891 C344.00551111 269.22517551 355.64831315 252.35045317 364.69319153 234.26069641 C182.86319153 234.26069641 1.03319153 234.26069641 -186.30680847 234.26069641 C-186.30680847 121.88963184 -186.30680847 121.88963184 -180.68180847 104.19819641 C-180.43019958 103.38858459 -180.1785907 102.57897278 -179.9193573 101.74482727 C-168.23964337 65.78717357 -142.75537696 38.99995892 -109.58854675 21.76020813 C-92.23758936 13.06199587 -73.45497579 7.64687876 -54.43180847 4.07319641 C-53.6199408 3.91826721 -52.80807312 3.76333801 -51.97160339 3.60371399 C-34.72434277 0.54873204 -17.47304901 -0.03317456 0 0 Z " fill="#FFFFFF" transform="translate(4648.30680847168,629.7393035888672)"/>
<path d="M0 0 C0 83.82 0 167.64 0 254 C128.7 254 257.4 254 390 254 C390 388.82971408 390 388.82971408 384.4375 404.875 C384.18846924 405.60348145 383.93943848 406.33196289 383.68286133 407.08251953 C371.20631377 441.81563 343.71020251 468.83305477 311 485 C279.15180702 499.93392695 245.62334789 503.17332936 210.93017578 503.11352539 C208.62272137 503.11324287 206.31526686 503.11340252 204.0078125 503.1139679 C197.78155942 503.11425335 191.55532582 503.10839751 185.32907724 503.10139394 C178.80816148 503.09511829 172.28724522 503.09455328 165.7663269 503.09336853 C154.833635 503.09061932 143.90095024 503.08438447 132.96826172 503.07543945 C121.71435583 503.06624127 110.46045187 503.05917224 99.20654297 503.05493164 C98.16362471 503.05453756 98.16362471 503.05453756 97.0996374 503.05413551 C93.61115362 503.05283034 90.12266983 503.05156667 86.63418603 503.05032361 C57.75611933 503.03997987 28.87805984 503.02231188 0 503 C0.0819415 559.65527096 0.17418261 616.31051724 0.28005161 672.96574882 C0.29257561 679.66906026 0.30500429 686.37237188 0.31738281 693.07568359 C0.3192328 694.07618371 0.3192328 694.07618371 0.32112016 695.09689596 C0.3609296 716.65052892 0.39446467 738.204166 0.42468691 759.75781437 C0.45670793 782.56968246 0.49600368 805.38152857 0.54279006 828.1933713 C0.57053729 841.83442129 0.59262927 855.47545554 0.60726251 869.11652601 C0.61788336 878.49709936 0.63578712 887.87764205 0.65916704 897.25819218 C0.67240675 902.65342488 0.68267719 908.04861502 0.68421364 913.44386482 C0.70948698 978.91680505 2.23742167 1052.03781973 51.48095703 1101.515625 C76.32207122 1125.78980923 110.20140224 1136.79841719 144 1141 C144.69075119 1141.08588379 145.38150238 1141.17176758 146.09318542 1141.26025391 C153.19412497 1142.06345658 160.24543581 1142.17702253 167.38671875 1142.203125 C168.66555435 1142.21013931 169.94438995 1142.21715363 171.26197815 1142.22438049 C175.40382334 1142.24392222 179.54561343 1142.24881896 183.6875 1142.25 C184.74670906 1142.25066278 184.74670906 1142.25066278 185.82731628 1142.25133896 C209.32426587 1142.2590539 232.64094609 1141.73502966 256 1139 C256.74862305 1138.91278687 257.49724609 1138.82557373 258.26855469 1138.73571777 C295.77063444 1134.30651054 340.09121933 1128.49002457 371.84375 1106.6953125 C375.99536406 1104.09766591 378.95100775 1103.69871148 383.82226562 1103.83154297 C384.98230103 1103.85586395 386.14233643 1103.88018494 387.33752441 1103.90524292 C388.21614136 1103.93651276 389.0947583 1103.96778259 390 1104 C390.07069511 1118.56233179 390.12327969 1133.12464028 390.15543652 1147.68710995 C390.17077735 1154.4517033 390.19161542 1161.21618885 390.22631836 1167.98071289 C390.25932197 1174.52953268 390.27693788 1181.07824149 390.28463173 1187.62713814 C390.29010268 1190.10451564 390.3007815 1192.58188825 390.31719017 1195.05921745 C390.50754259 1225.03680511 387.59093419 1254.44018278 375 1282 C374.71431152 1282.63421875 374.42862305 1283.2684375 374.13427734 1283.921875 C367.29786666 1298.93169296 358.33294515 1312.01945798 347 1324 C345.80713534 1325.39125154 344.61935399 1326.78688296 343.4375 1328.1875 C339.91324431 1332.19813487 336.1558265 1335.65081685 332 1339 C331.47857422 1339.42265137 330.95714844 1339.84530273 330.41992188 1340.28076172 C296.02999911 1367.87915504 253.73300744 1381.58835648 210.625 1388.1875 C209.12271851 1388.42001465 209.12271851 1388.42001465 207.59008789 1388.65722656 C186.31361553 1391.72031785 165.01938596 1392.37545269 143.55099106 1392.31805801 C141.40391718 1392.31241168 139.25685123 1392.30959417 137.10977173 1392.30697632 C114.30111591 1392.26660536 91.67297555 1391.62729159 69 1389 C68.25304871 1388.91514343 67.50609741 1388.83028687 66.73651123 1388.74285889 C16.06096568 1382.94963859 -33.723493 1370.78463005 -80 1349 C-80.90073242 1348.5771875 -81.80146484 1348.154375 -82.72949219 1347.71875 C-105.74752098 1336.81053939 -127.15913115 1322.95508357 -147 1307 C-148.01449219 1306.19175781 -149.02898438 1305.38351562 -150.07421875 1304.55078125 C-158.28488562 1297.83993456 -165.80156204 1290.40900557 -173.3125 1282.9375 C-173.8244693 1282.43079773 -174.3364386 1281.92409546 -174.86392212 1281.40203857 C-181.71034293 1274.61011458 -188.05164143 1267.60943197 -194 1260 C-194.54809326 1259.30060303 -195.09618652 1258.60120605 -195.66088867 1257.88061523 C-246.50301948 1192.17450577 -269.05253692 1111.76304415 -276 1030 C-276.09788818 1028.90316895 -276.09788818 1028.90316895 -276.19775391 1027.78417969 C-278.22306194 1004.71120142 -278.1527915 981.38161439 -278.12846755 958.24035194 C-278.12587298 954.67680102 -278.12921303 951.11325398 -278.13171089 947.54970366 C-278.13528279 941.33707789 -278.13523793 935.12446086 -278.13266373 928.91183472 C-278.12884609 919.67273605 -278.130833 910.4336446 -278.13387203 901.19454597 C-278.13911165 884.6838624 -278.13869188 868.17318273 -278.13579312 851.6624988 C-278.13326906 837.21359805 -278.13262481 822.76469873 -278.13381577 808.31579781 C-278.13389215 807.3541847 -278.13396854 806.39257159 -278.13404724 805.40181868 C-278.13435862 801.49749233 -278.13467702 797.59316597 -278.135007 793.68883961 C-278.13806005 757.12812679 -278.13530195 720.56741643 -278.1299101 684.00670398 C-278.12516478 651.58348818 -278.12559014 619.16027631 -278.13037109 586.73706055 C-278.13573517 550.23805337 -278.13784384 513.73904836 -278.13475883 477.24004084 C-278.13443815 473.34348937 -278.13412531 469.4469379 -278.13381577 465.55038643 C-278.13373669 464.59108375 -278.13365761 463.63178107 -278.13357614 462.64340861 C-278.13244259 448.20920619 -278.13376157 433.77500535 -278.13629532 419.34080315 C-278.13916431 402.91574761 -278.13841908 386.49069655 -278.13301457 370.06564157 C-278.13009535 360.8931836 -278.12986171 351.72073533 -278.13366075 342.54827762 C-278.13592484 336.3994634 -278.13446899 330.25065686 -278.13015598 324.10184377 C-278.12780742 320.61339335 -278.12689908 317.124962 -278.13056196 313.63651227 C-278.1494288 290.57602066 -278.08268112 267.4020634 -275.75 244.4375 C-275.62141602 243.1599585 -275.49283203 241.88241699 -275.36035156 240.56616211 C-268.79180974 179.22311128 -242.4905509 130.57494813 -202.8984375 84.42578125 C-201.24224168 82.49345253 -199.63140846 80.53822573 -198.04345703 78.54882812 C-192.45481997 71.56706356 -186.47270575 65.16958687 -180.125 58.875 C-179.20847656 57.95074219 -178.29195312 57.02648437 -177.34765625 56.07421875 C-171.20886174 49.95269229 -164.79636523 44.37681944 -158 39 C-156.90432935 38.1075297 -155.80915281 37.2144518 -154.71484375 36.3203125 C-105.63987743 -2.47030785 -65.10587695 0 0 0 Z " fill="#FFFFFF" transform="translate(2796,376)"/>
</svg>
